<?xml version="1.0" encoding="UTF-8"?>
<svg xmlns="http://www.w3.org/2000/svg" xmlns:xlink="http://www.w3.org/1999/xlink" viewBox="0 0 30 30" width="30px" height="30px">
<g id="surface13357740">
<path style=" stroke:none;fill-rule:nonzero;fill:rgb(100%,100%,100%);fill-opacity:1;" d="M 15 30 C 6.714844 30 0 23.285156 0 15 C 0 6.714844 6.714844 0 15 0 C 23.285156 0 30 6.714844 30 15 C 30 23.285156 23.285156 30 15 30 Z M 15 30 "/>
<path style=" stroke:none;fill-rule:nonzero;fill:rgb(71.372551%,0%,0%);fill-opacity:1;" d="M 7.101562 6.601562 C 6.308594 8.457031 6.628906 10.007812 6.914062 10.855469 C 5.773438 12.078125 5.074219 13.761719 5.074219 16.003906 C 5.074219 21.550781 8.578125 23.398438 15 23.398438 C 21.425781 23.398438 24.929688 21.550781 24.929688 16.003906 C 24.929688 13.835938 24.191406 12.148438 22.996094 10.902344 C 23.167969 10.621094 23.402344 10.074219 23.402344 9.035156 C 23.402344 7.472656 22.878906 6.601562 22.878906 6.601562 C 22.0625 6.601562 20.144531 6.929688 18.558594 8.507812 C 17.429688 8.226562 16.230469 8.128906 15.003906 8.128906 C 13.800781 8.128906 12.625 8.191406 11.519531 8.4375 C 11.449219 8.371094 9.472656 6.601562 7.101562 6.601562 Z M 11.1875 13.855469 C 12.183594 13.867188 13.824219 14.234375 15.003906 14.238281 C 16.183594 14.234375 17.824219 13.867188 18.820312 13.855469 C 20.746094 13.855469 21.875 15.382812 21.875 17.269531 C 21.875 20.363281 20.082031 21.871094 15.003906 21.871094 L 15 21.871094 C 9.921875 21.871094 8.132812 20.363281 8.132812 17.269531 C 8.132812 15.382812 9.261719 13.855469 11.1875 13.855469 Z M 11.5625 16.527344 C 10.929688 16.527344 10.417969 17.210938 10.417969 18.054688 C 10.417969 18.898438 10.929688 19.582031 11.5625 19.582031 C 12.195312 19.582031 12.710938 18.898438 12.710938 18.054688 C 12.710938 17.210938 12.195312 16.527344 11.5625 16.527344 Z M 18.4375 16.527344 C 17.804688 16.527344 17.292969 17.210938 17.292969 18.054688 C 17.292969 18.898438 17.804688 19.582031 18.4375 19.582031 C 19.070312 19.582031 19.582031 18.898438 19.582031 18.054688 C 19.582031 17.210938 19.070312 16.527344 18.4375 16.527344 Z M 18.4375 16.527344 "/>
</g>
</svg>
